PathFileType	4	(X/Y/Z)	/Users/itak/Documents/Research/Walk-IL/dataset/trc/00451_00167.trc
DataRate	CameraRate	NumFrames	NumMarkers	Units	OrigDataRate	OrigDataStartFrame	OrigNumFrames
100.000000	100.000000	4	53	mm	100.000000	113	455
Frame#	Time	RPSI			LPSI			L3			STRN			T10			C7			CLAV			RBAK			LBAK			LSHO			LUPA			LAEL			LAOL			LWTS			LWPS			LFRA			LIFD			LHPS			LHTS			RSHO			RUPA			RAEL			RAOL			RWTS			RWPS			RFRA			RIFD			RHTS			RHPS			RBHD			LFHD			RFHD			LBHD			LHIP			RHIP			RASI			LASI			LKNE			LTHI			LANK			LTIP			LTOE			LMT1			LMT5			LHEE			RKNE			RTHI			RANK			RTIP			RTOE			RMT1			RMT5			RHEE			
		X1	Y1	Z1	X2	Y2	Z2	X3	Y3	Z3	X4	Y4	Z4	X5	Y5	Z5	X6	Y6	Z6	X7	Y7	Z7	X8	Y8	Z8	X9	Y9	Z9	X10	Y10	Z10	X11	Y11	Z11	X12	Y12	Z12	X13	Y13	Z13	X14	Y14	Z14	X15	Y15	Z15	X16	Y16	Z16	X17	Y17	Z17	X18	Y18	Z18	X19	Y19	Z19	X20	Y20	Z20	X21	Y21	Z21	X22	Y22	Z22	X23	Y23	Z23	X24	Y24	Z24	X25	Y25	Z25	X26	Y26	Z26	X27	Y27	Z27	X28	Y28	Z28	X29	Y29	Z29	X30	Y30	Z30	X31	Y31	Z31	X32	Y32	Z32	X33	Y33	Z33	X34	Y34	Z34	X35	Y35	Z35	X36	Y36	Z36	X37	Y37	Z37	X38	Y38	Z38	X39	Y39	Z39	X40	Y40	Z40	X41	Y41	Z41	X42	Y42	Z42	X43	Y43	Z43	X44	Y44	Z44	X45	Y45	Z45	X46	Y46	Z46	X47	Y47	Z47	X48	Y48	Z48	X49	Y49	Z49	X50	Y50	Z50	X51	Y51	Z51	X52	Y52	Z52	X53	Y53	Z53	

114	1.13	-1850.729370117188	968.1390380859375	-568.0594482421875	-1782.0849609375	969.9168701171875	-692.3038330078125	-1809.704956054688	1064.92431640625	-606.7283325195312	-1556.362426757812	1256.061889648438	-495.9825439453125	-1822.258911132812	1189.803955078125	-615.7149047851562	-1758.076538085938	1456.625244140625	-575.4525756835938	-1583.87890625	1371.11083984375	-515.9572143554688	-1858.555908203125	1341.173095703125	-514.3800048828125	-1750.028442382812	1407.892211914062	-678.8123168945312	-1622.954467773438	1429.375854492188	-714.3756713867188	-1594.483032226562	1309.777099609375	-808.0686645507812	-1564.026000976562	1091.940307617188	-826.1884155273438	-1663.129760742188	1079.733764648438	-802.5853271484375	-1508.547119140625	899.880126953125	-744.2623901367188	-1527.34423828125	876.3853149414062	-813.5861206054688	-1540.28564453125	1005.03369140625	-822.849365234375	-1484.251098632812	736.494873046875	-726.6594848632812	-1512.286987304688	797.65478515625	-803.4559936523438	-1477.813354492188	816.58056640625	-739.77099609375	-1760.98974609375	1429.383056640625	-399.6039428710938	-1808.973754882812	1369.068603515625	-336.6385803222656	-1827.521118164062	1082.982177734375	-279.6566772460938	-1862.56640625	1066.113891601562	-335.1580200195312	-1716.512084960938	883.5206298828125	-282.2900390625	-1799.102172851562	865.2816162109375	-254.4456024169922	-1827.802612304688	1025.274047851562	-268.946044921875	-1710.792846679688	725.1819458007812	-272.7130737304688	-1703.268188476562	785.0934448242188	-263.7024536132812	-1779.021484375	779.2411499023438	-249.7364807128906	-1712.444580078125	1650.423095703125	-465.4175415039062	-1519.8310546875	1659.904907226562	-544.3319702148438	-1579.597534179688	1659.805786132812	-427.1005249023438	-1646.515502929688	1655.864379882812	-630.6887817382812	-1607.18896484375	866.8739624023438	-731.0477905273438	-1815.005859375	862.674560546875	-393.3919372558594	-1692.452758789062	903.7425537109375	-394.9752502441406	-1556.081298828125	904.4616088867188	-614.596923828125	-1584.690673828125	443.1017150878906	-686.3424682617188	-1562.512573242188	597.4004516601562	-698.7681274414062	-1688.978759765625	33.96684265136719	-749.5899658203125	-1603.543579101562	290.9884643554688	-712.5294799804688	-1527.629638671875	47.33929061889648	-577.6847534179688	-1603.086303710938	53.384765625	-587.7661743164062	-1548.716430664062	44.47860717773438	-689.3972778320312	-1762.675415039062	34.44823837280273	-729.7465209960938	-1762.719482421875	469.9788208007812	-398.6688842773438	-1780.177368164062	728.700439453125	-360.8177490234375	-1817.330322265625	41.75492858886719	-426.5969848632812	-1774.194213867188	325.06982421875	-389.3609619140625	-1604.042602539062	49.55997848510742	-372.0699462890625	-1644.131591796875	56.54555511474609	-431.1841430664062	-1708.488403320312	47.80304336547852	-344.1728210449219	-1854.873413085938	33.99253082275391	-499.4726257324219	
115	1.14	-1850.1279296875	968.1586303710938	-568.0303955078125	-1781.495971679688	969.9994506835938	-692.2738037109375	-1809.023803710938	1064.894287109375	-606.6550903320312	-1555.716186523438	1255.976196289062	-495.7734375	-1821.507690429688	1189.820068359375	-615.6749267578125	-1757.283813476562	1456.619873046875	-575.2907104492188	-1583.221923828125	1371.020874023438	-515.669921875	-1857.826904296875	1341.156860351562	-514.3319702148438	-1749.194946289062	1407.927734375	-678.6680297851562	-1622.117309570312	1429.3837890625	-714.102294921875	-1593.548706054688	1309.881469726562	-807.8338012695312	-1562.881591796875	1092.0517578125	-826.2793579101562	-1662.137451171875	1079.880493164062	-802.822265625	-1507.542602539062	899.9161376953125	-744.7503051757812	-1526.280883789062	876.532958984375	-814.1649169921875	-1539.231201171875	1005.190979003906	-823.1588134765625	-1483.451538085938	736.3458862304688	-727.6487426757812	-1511.242797851562	797.7411499023438	-804.2116088867188	-1476.8017578125	816.5355834960938	-740.4752807617188	-1760.3876953125	1429.306030273438	-399.4699096679688	-1808.440551757812	1369.02001953125	-336.5747680664062	-1827.287719726562	1083.014038085938	-279.4987182617188	-1862.2734375	1066.151245117188	-335.0115356445312	-1716.594482421875	883.4014892578125	-281.9313659667969	-1799.169067382812	865.2537231445312	-254.1286926269531	-1827.671752929688	1025.290771484375	-268.7622375488281	-1711.679077148438	724.8414916992188	-272.4853210449219	-1703.453369140625	784.9293212890625	-263.2425842285156	-1779.21044921875	779.194091796875	-249.3700714111328	-1711.5888671875	1650.371948242188	-465.1258239746094	-1518.961303710938	1659.795288085938	-543.9683227539062	-1578.831298828125	1659.707275390625	-426.7750244140625	-1645.680908203125	1655.863159179688	-630.3715209960938	-1606.398803710938	866.7290649414062	-730.8671875	-1814.572875976562	862.6743774414062	-393.3812866210938	-1691.902465820312	903.6712646484375	-394.8153686523438	-1555.595336914062	904.4063720703125	-614.4500732421875	-1584.40234375	443.0184020996094	-686.328125	-1562.116455078125	597.3363037109375	-698.694580078125	-1688.978149414062	33.9649658203125	-749.5894165039062	-1603.397583007812	290.9206848144531	-712.5934448242188	-1527.663818359375	47.30699920654297	-577.6092529296875	-1603.091186523438	53.37969970703125	-587.7510375976562	-1548.701293945312	44.46470260620117	-689.3796997070312	-1762.850341796875	34.66059112548828	-729.8074340820312	-1762.376220703125	469.9319763183594	-398.6126708984375	-1779.85546875	728.70556640625	-360.7418518066406	-1817.334716796875	41.77920150756836	-426.6110534667969	-1774.066284179688	325.0818786621094	-389.3703002929688	-1604.027099609375	49.54518508911133	-372.0802612304688	-1644.127563476562	56.54459762573242	-431.1769409179688	-1708.47998046875	47.81272888183594	-344.16259765625	-1854.86962890625	34.02783203125	-499.4832458496094	
116	1.15	-1849.512573242188	968.1790161132812	-568.0245971679688	-1780.8837890625	970.101318359375	-692.2303466796875	-1808.339965820312	1064.87646484375	-606.58056640625	-1555.056884765625	1255.89501953125	-495.5722961425781	-1820.777587890625	1189.8642578125	-615.645751953125	-1756.47265625	1456.623779296875	-575.1348266601562	-1582.55517578125	1370.93798828125	-515.3671264648438	-1857.105224609375	1341.1484375	-514.2964477539062	-1748.33740234375	1407.955078125	-678.5145874023438	-1621.258544921875	1429.385131835938	-713.8226318359375	-1592.6220703125	1309.996948242188	-807.6080322265625	-1561.740966796875	1092.170654296875	-826.4010620117188	-1661.138427734375	1080.023071289062	-803.061767578125	-1506.566040039062	899.9448852539062	-745.2796630859375	-1525.20654296875	876.6810302734375	-814.7716064453125	-1538.169677734375	1005.37060546875	-823.4929809570312	-1482.620361328125	736.239501953125	-728.6817016601562	-1510.255004882812	797.8356323242188	-805.0341186523438	-1475.778686523438	816.4903564453125	-741.23095703125	-1759.782958984375	1429.228759765625	-399.3372497558594	-1807.908325195312	1368.970825195312	-336.5150451660156	-1827.047485351562	1083.042114257812	-279.3336791992188	-1862.000366210938	1066.199829101562	-334.8539123535156	-1716.661010742188	883.301513671875	-281.5429382324219	-1799.213500976562	865.2520141601562	-253.7757720947266	-1827.526000976562	1025.30126953125	-268.5618591308594	-1712.590698242188	724.4407958984375	-272.3123168945312	-1703.57763671875	784.7534790039062	-262.8126220703125	-1779.35595703125	779.14599609375	-249.0083312988281	-1710.719604492188	1650.323608398438	-464.8337707519531	-1518.06591796875	1659.66796875	-543.60986328125	-1578.036865234375	1659.603271484375	-426.4389343261719	-1644.81884765625	1655.878662109375	-630.0397338867188	-1605.560791015625	866.54638671875	-730.6699829101562	-1814.1103515625	862.66943359375	-393.3708190917969	-1691.348388671875	903.5985717773438	-394.6482238769531	-1555.066650390625	904.3446655273438	-614.2734375	-1584.12158203125	442.9391174316406	-686.3235473632812	-1561.7001953125	597.264404296875	-698.5892944335938	-1688.977294921875	33.96311187744141	-749.5889282226562	-1603.363159179688	290.8143920898438	-712.7222290039062	-1527.702880859375	47.28194808959961	-577.5355834960938	-1603.097045898438	53.37422180175781	-587.7396240234375	-1548.692260742188	44.45645141601562	-689.3695068359375	-1763.050415039062	34.90460586547852	-729.8833618164062	-1762.032592773438	469.8954467773438	-398.5656433105469	-1779.528198242188	728.7189331054688	-360.668701171875	-1817.340454101562	41.80614471435547	-426.6255493164062	-1773.957153320312	325.0895080566406	-389.3803100585938	-1604.0126953125	49.5330696105957	-372.087890625	-1644.123168945312	56.5437126159668	-431.1703491210938	-1708.470825195312	47.8267707824707	-344.1456909179688	-1854.867065429688	34.06224822998047	-499.4945373535156	
117	1.16	-1848.879028320312	968.1976318359375	-568.0368041992188	-1780.238891601562	970.2114868164062	-692.1693115234375	-1807.661254882812	1064.88330078125	-606.5181884765625	-1554.387451171875	1255.816528320312	-495.3715515136719	-1820.066284179688	1189.93310546875	-615.628173828125	-1755.649169921875	1456.637939453125	-574.9855346679688	-1581.873291015625	1370.861938476562	-515.051513671875	-1856.395141601562	1341.145629882812	-514.27099609375	-1747.46142578125	1407.9794921875	-678.3561401367188	-1620.379516601562	1429.376220703125	-713.5361328125	-1591.695678710938	1310.119262695312	-807.3860473632812	-1560.611572265625	1092.300659179688	-826.5447998046875	-1660.126342773438	1080.15478515625	-803.295654296875	-1505.630126953125	899.9584350585938	-745.8575439453125	-1524.1328125	876.8323974609375	-815.4052734375	-1537.1083984375	1005.565673828125	-823.8458862304688	-1481.741455078125	736.1707153320312	-729.7478637695312	-1509.302001953125	797.92626953125	-805.9053955078125	-1474.770874023438	816.4437866210938	-742.0411376953125	-1759.166748046875	1429.156005859375	-399.2066040039062	-1807.368774414062	1368.918823242188	-336.4551391601562	-1826.80126953125	1083.065551757812	-279.16357421875	-1861.75	1066.259399414062	-334.6965637207031	-1716.705932617188	883.2218627929688	-281.1277770996094	-1799.237915039062	865.2781982421875	-253.3955078125	-1827.363647460938	1025.30615234375	-268.3469543457031	-1713.430786132812	724.0215454101562	-272.1609802246094	-1703.628051757812	784.5772705078125	-262.4092102050781	-1779.485961914062	779.1148071289062	-248.6657257080078	-1709.844848632812	1650.268310546875	-464.541259765625	-1517.151489257812	1659.523559570312	-543.25390625	-1577.2158203125	1659.493896484375	-426.0920715332031	-1643.936279296875	1655.91357421875	-629.6973266601562	-1604.671630859375	866.3247680664062	-730.451904296875	-1813.611694335938	862.663818359375	-393.3534851074219	-1690.808715820312	903.5283203125	-394.4805908203125	-1554.48974609375	904.2706298828125	-614.06689453125	-1583.85302734375	442.86376953125	-686.32373046875	-1561.273193359375	597.17822265625	-698.4571533203125	-1688.976196289062	33.96140289306641	-749.588623046875	-1603.404663085938	290.6851196289062	-712.8848876953125	-1527.745849609375	47.26363372802734	-577.46630859375	-1603.103759765625	53.36837005615234	-587.7322998046875	-1548.68798828125	44.45228576660156	-689.3654174804688	-1763.246459960938	35.14581298828125	-729.9622192382812	-1761.69873046875	469.8680114746094	-398.5303344726562	-1779.190673828125	728.7389526367188	-360.5992736816406	-1817.345947265625	41.83538436889648	-426.6408386230469	-1773.862426757812	325.0935668945312	-389.3902893066406	-1604.0009765625	49.52388763427734	-372.0930480957031	-1644.11865234375	56.54285430908203	-431.1644287109375	-1708.461669921875	47.84218978881836	-344.1239013671875	-1854.865966796875	34.09489440917969	-499.5054016113281	
